<?xml version="1.0" standalone="no"?><!DOCTYPE svg PUBLIC "-//W3C//DTD SVG 1.1//EN" "http://www.w3.org/Graphics/SVG/1.1/DTD/svg11.dtd"><svg class="icon" width="200px" height="175.04px" viewBox="0 0 1170 1024" version="1.1" xmlns="http://www.w3.org/2000/svg"><path d="M1173.0407623 1008.932091L18.16435931 1008.932091l0-963.77858899L1173.04076231 45.153502z" fill="#F5F5F5" /><path d="M746.03296531 625.85875l-692.906337 0c-6.33904501 0-11.605328 5.119998-11.605327 11.312756L41.52130131 716.214516a11.459042 11.459042 0 0 0 11.556565 11.312757L745.98420331 727.527273a11.459042 11.459042 0 0 0 11.605328-11.312757l0-78.994248c0-6.24152099-5.217521-11.361518-11.556566-11.361518z m11.556566-287.987673c0-6.192759-5.217521-11.263995-11.55656599-11.263994l-692.906337 0c-6.33904501 0-11.605328 5.071236-11.60532701 11.263994l0 79.091772a11.459042 11.459042 0 0 0 11.556565 11.263995L745.98420331 428.226844a11.459042 11.459042 0 0 0 11.605328-11.263995l0-79.091772zM30.01349631 1023.999512L1161.77676731 1023.999512A11.459042 11.459042 0 0 0 1173.33333331 1012.686756l0-78.994248c0-6.24152099-5.217521-11.361518-11.556566-11.361519l-1131.763271 0c-6.33904501 0-11.556566 5.119998-11.556565 11.312757L18.45693131 1012.686756A11.459042 11.459042 0 0 0 30.01349631 1023.999512z m0-892.244908L1161.77676731 131.754604a11.459042 11.459042 0 0 0 11.556566-11.263995l0-79.091772c0-6.192759-5.217521-11.263995-11.556566-11.263994l-1131.763271 0c-6.33904501 0-11.556566 5.071236-11.556565 11.263994l1e-8 79.091772a11.459042 11.459042 0 0 0 11.55656499 11.263995zM1168.40838331 517.36356299l-225.621226-173.78734599c-8.387044-6.48533-20.772562-0.682666-20.772561 9.752377L922.01459631 700.85452301c0 10.435043 12.23923199 16.237707 20.772561 9.75237699L1168.40838331 536.81955399a12.19047 12.19047 0 0 0 0-19.50475299z" fill="#000000" /></svg>