<?xml version="1.0" standalone="no"?><!DOCTYPE svg PUBLIC "-//W3C//DTD SVG 1.1//EN" "http://www.w3.org/Graphics/SVG/1.1/DTD/svg11.dtd"><svg class="icon" width="200px" height="175.04px" viewBox="0 0 1170 1024" version="1.1" xmlns="http://www.w3.org/2000/svg"><path d="M0.292571 15.067909H1155.168974v963.778589H0.292571z" fill="#F5F5F5" opacity=".65" /><path d="M427.300368 398.14125h692.906337c6.339045 0 11.605328-5.119998 11.605327-11.312756V307.785484a11.459042 11.459042 0 0 0-11.556565-11.312757H427.34913a11.459042 11.459042 0 0 0-11.605328 11.312757v78.994248c0 6.241521 5.217521 11.361518 11.556566 11.361518z m-11.556566 287.987673c0 6.192759 5.217521 11.263995 11.556566 11.263994h692.906337c6.339045 0 11.605328-5.071236 11.605327-11.263994v-79.091772a11.459042 11.459042 0 0 0-11.556565-11.263995H427.34913a11.459042 11.459042 0 0 0-11.605328 11.263995v79.091772zM1143.319837 0.000488H11.556566A11.459042 11.459042 0 0 0 0 11.313244v78.994248c0 6.241521 5.217521 11.361518 11.556566 11.361519h1131.763271c6.339045 0 11.556566-5.119998 11.556565-11.312757V11.313244A11.459042 11.459042 0 0 0 1143.319837 0.000488z m0 892.244908H11.556566a11.459042 11.459042 0 0 0-11.556566 11.263995v79.091772c0 6.192759 5.217521 11.263995 11.556566 11.263994h1131.763271c6.339045 0 11.556566-5.071236 11.556565-11.263994v-79.091772a11.459042 11.459042 0 0 0-11.556565-11.263995zM4.92495 506.636437l225.621226 173.787346c8.387044 6.48533 20.772562 0.682666 20.772561-9.752377V323.145477c0-10.435043-12.239232-16.237707-20.772561-9.752377L4.92495 487.180446a12.19047 12.19047 0 0 0 0 19.504753z" fill="#000000" opacity=".65" /></svg>