<?xml version="1.0" standalone="no"?><!DOCTYPE svg PUBLIC "-//W3C//DTD SVG 1.1//EN" "http://www.w3.org/Graphics/SVG/1.1/DTD/svg11.dtd"><svg class="icon" width="200px" height="200.00px" viewBox="0 0 1024 1024" version="1.1" xmlns="http://www.w3.org/2000/svg"><path d="M939.333818 199.447273L566.737455 572.509091a156.113455 156.113455 0 0 1-81.268364 37.748364l-76.008727 6.330181-24.622546 2.001455 2.048-24.669091 6.376727-76.101818a156.485818 156.485818 0 0 1 37.655273-81.501091l372.363637-373.154909a29.463273 29.463273 0 0 1 41.285818 0L939.333818 158.254545a29.323636 29.323636 0 0 1 0 41.192728zM238.545455 791.272727a23.272727 23.272727 0 0 1 0-46.545454h465.454545a23.272727 23.272727 0 0 1 0 46.545454h-465.454545z m-116.363637-651.636363v744.727272a46.545455 46.545455 0 0 0 46.545455 46.545455h605.090909a46.545455 46.545455 0 0 0 46.545454-46.545455v-232.727272h46.545455v232.727272a93.090909 93.090909 0 0 1-93.090909 93.090909h-605.090909a93.090909 93.090909 0 0 1-93.090909-93.090909V139.636364a93.090909 93.090909 0 0 1 93.090909-93.090909h372.363636v46.545454h-372.363636a46.545455 46.545455 0 0 0-46.545455 46.545455z" fill="#333333" /></svg>